<svg width="68" height="308" viewBox="0 0 68 308" fill="none" xmlns="http://www.w3.org/2000/svg">
<path d="M1.25049 161.469C1.24109 160.155 1.74935 158.89 2.66533 157.948L29.9652 129.867C31.909 127.868 35.1128 127.845 37.085 129.817L64.7839 157.504C65.7133 158.433 66.2396 159.69 66.249 161.004L67.2597 302.246C67.2795 305.007 65.057 307.262 62.2957 307.281L7.29686 307.675C4.53551 307.695 2.28097 305.472 2.26121 302.711L1.25049 161.469Z" fill="#5080FC" fill-opacity="0.4"/>
<line x1="34" y1="128" x2="34" y2="6" stroke="#5080FC" stroke-width="2" stroke-dasharray="7 7"/>
<path d="M0.0201143 2.73537L11.3181 1.2873L21.1042 0.656579L32.0915 0.308263L44.28 0.242724L54.9566 0.994653L64.2766 2.01402L66.1123 157.969L39.1123 130.969C38.1438 129.622 36.3869 128.36 34.1123 128.469C32.0026 128.569 31.6123 128.969 29.6123 130.969C27.6123 132.969 2.6123 159.469 2.6123 159.469L0.0201143 2.73537Z" fill="#5080FC" fill-opacity="0.1"/>
</svg>