<svg width="262" height="198" viewBox="0 0 262 198" fill="none" xmlns="http://www.w3.org/2000/svg">
<path d="M7.81641 102.032C96.8232 100.112 244.171 102.153 244.171 102.153L257.513 79.1976L7.7532 78.3666L7.81641 102.032Z" stroke="#222222" stroke-width="5" stroke-miterlimit="10"/>
<path d="M8.04177 113.36L7.79899 102.081L244.148 102.06C244.148 102.06 240.082 120.34 230.029 125.55C219.976 130.76 207.185 137.767 176.087 137.311C144.989 136.855 38.9212 136.149 38.9212 136.149C38.9212 136.149 37.2408 122.933 28.8668 120.038C20.4928 117.144 8.04177 113.36 8.04177 113.36Z" stroke="#222222" stroke-width="5" stroke-miterlimit="10"/>
<path d="M53.7749 78.6459L62.8365 55.7636L169.503 54.8639C172.413 54.2454 175.437 54.4457 178.239 55.4424C181.042 56.4391 183.513 58.1933 185.378 60.5099C191.931 68.6041 201.322 78.6313 201.322 78.6313L53.7749 78.6459Z" stroke="#222222" stroke-width="5" stroke-miterlimit="10"/>
<path d="M90.9956 35.4484L83.2673 55.4473L171.949 54.3626L164.927 44.2828C164.927 44.2828 161.832 36.7748 146.592 36.1111C131.352 35.4475 90.9956 35.4484 90.9956 35.4484Z" stroke="#222222" stroke-width="5" stroke-miterlimit="10"/>
</svg>
