<svg width="307" height="59" viewBox="0 0 307 59" fill="none" xmlns="http://www.w3.org/2000/svg">
<line y1="-1" x2="41.0122" y2="-1" transform="matrix(-0.706191 0.708022 0.708022 0.706191 290.461 2.53613)" stroke="#41A746" stroke-width="2"/>
<line y1="-1" x2="41.0122" y2="-1" transform="matrix(-0.706191 0.708022 0.708022 0.706191 275.461 2.58105)" stroke="#41A746" stroke-width="2"/>
<line y1="-1" x2="41.0122" y2="-1" transform="matrix(-0.706191 0.708022 0.708022 0.706191 260.461 2.625)" stroke="#41A746" stroke-width="2"/>
<line y1="-1" x2="41.0122" y2="-1" transform="matrix(-0.706191 0.708022 0.708022 0.706191 245.459 2.66992)" stroke="#41A746" stroke-width="2"/>
<line y1="-1" x2="41.0122" y2="-1" transform="matrix(-0.706191 0.708022 0.708022 0.706191 230.463 2.71387)" stroke="#41A746" stroke-width="2"/>
<line y1="-1" x2="41.0122" y2="-1" transform="matrix(-0.706191 0.708022 0.708022 0.706191 45.5879 2.08008)" stroke="#41A746" stroke-width="2"/>
<line y1="-1" x2="41.0122" y2="-1" transform="matrix(-0.706191 0.708022 0.708022 0.706191 30.5879 2.125)" stroke="#41A746" stroke-width="2"/>
<line y1="-1" x2="114" y2="-1" transform="matrix(0.999999 -0.00129446 -0.00129446 -0.999999 147.375 29.7285)" stroke="#41A746" stroke-width="2"/>
<line x1="115.444" y1="29.8223" x2="1.44528" y2="30.3474" stroke="#41A746" stroke-width="2"/>
<circle cx="132.5" cy="30.5" r="9.5" fill="#048BFE"/>
<line x1="201.395" y1="33.4476" x2="201.341" y2="45.4474" stroke="black"/>
<line x1="16.3965" y1="32.6194" x2="16.3427" y2="44.6193" stroke="black"/>
<line x1="1.39648" y1="32.552" x2="1.34271" y2="44.5519" stroke="black"/>
<line x1="216.395" y1="33.514" x2="216.341" y2="45.5138" stroke="black"/>
<line x1="231.393" y1="33.5813" x2="231.339" y2="45.5812" stroke="black"/>
<line x1="261.393" y1="33.7171" x2="261.339" y2="45.717" stroke="black"/>
<line x1="246.393" y1="33.6497" x2="246.339" y2="45.6496" stroke="black"/>
</svg>