<svg width="307" height="59" viewBox="0 0 307 59" fill="none" xmlns="http://www.w3.org/2000/svg">
<circle cx="153.019" cy="48.6713" r="9.5" transform="rotate(-0.0211549 153.019 48.6713)" fill="#048BFE"/>
<line x1="142.809" y1="39.8822" x2="113.798" y2="10.8929" stroke="#41A746" stroke-width="2"/>
<line x1="0.593381" y1="11.2236" x2="114.593" y2="11.1815" stroke="#41A746" stroke-width="2"/>
<line y1="-1" x2="23" y2="-1" transform="matrix(-0.81649 -0.57736 -0.57736 0.81649 57.5195 25.9688)" stroke="#41A746" stroke-width="2"/>
<line y1="-1" x2="23" y2="-1" transform="matrix(-0.81649 -0.57736 -0.57736 0.81649 47.5195 25.9102)" stroke="#41A746" stroke-width="2"/>
<line y1="-1" x2="23" y2="-1" transform="matrix(-0.81649 -0.57736 -0.57736 0.81649 37.5176 25.8516)" stroke="#41A746" stroke-width="2"/>
<line y1="-1" x2="23" y2="-1" transform="matrix(-0.81649 -0.57736 -0.57736 0.81649 28.5176 25.7998)" stroke="#41A746" stroke-width="2"/>
<line y1="-1" x2="23" y2="-1" transform="matrix(-0.81649 -0.57736 -0.57736 0.81649 19.5195 25.7471)" stroke="#41A746" stroke-width="2"/>
<line y1="-1" x2="41.0122" y2="-1" transform="matrix(0.706846 -0.707368 -0.707368 -0.706846 162.516 39.168)" stroke="#41A746" stroke-width="2"/>
<line y1="-1" x2="114" y2="-1" transform="matrix(-1 0.000369223 0.000369223 1 305.594 12.1104)" stroke="#41A746" stroke-width="2"/>
<line x1="247.943" y1="25.1908" x2="266.733" y2="11.927" stroke="#41A746" stroke-width="2"/>
<line x1="257.943" y1="25.141" x2="276.733" y2="11.8772" stroke="#41A746" stroke-width="2"/>
<line x1="267.943" y1="25.0922" x2="286.733" y2="11.8284" stroke="#41A746" stroke-width="2"/>
<line x1="276.943" y1="25.0473" x2="295.733" y2="11.7834" stroke="#41A746" stroke-width="2"/>
<line x1="285.943" y1="25.0033" x2="304.733" y2="11.7395" stroke="#41A746" stroke-width="2"/>
<line x1="266.02" y1="2.18556e-08" x2="266.02" y2="9" stroke="black"/>
<line x1="276.02" y1="2.18556e-08" x2="276.02" y2="9" stroke="black"/>
<line x1="286.02" y1="2.18556e-08" x2="286.02" y2="9" stroke="black"/>
<line x1="296.02" y1="2.18556e-08" x2="296.02" y2="9" stroke="black"/>
<line x1="306.02" y1="2.18556e-08" x2="306.02" y2="9" stroke="black"/>
<line x1="1.01953" y1="2.18556e-08" x2="1.01953" y2="9" stroke="black"/>
<line x1="11.0195" y1="2.18556e-08" x2="11.0195" y2="9" stroke="black"/>
<line x1="21.0195" y1="2.18556e-08" x2="21.0195" y2="9" stroke="black"/>
<line x1="31.0195" y1="2.18556e-08" x2="31.0195" y2="9" stroke="black"/>
<line x1="41.0195" y1="2.18556e-08" x2="41.0195" y2="9" stroke="black"/>
</svg>