<svg width="153" height="157" viewBox="0 0 153 157" fill="none" xmlns="http://www.w3.org/2000/svg">
<path d="M130.078 92.4764L121.388 123.576C121 124.827 120.07 125.912 118.77 126.632L84.6318 148.636C83.9951 148.994 83.2526 149.206 82.4777 149.254C81.7029 149.302 80.9226 149.183 80.2142 148.908L44.5121 127.259C42.549 126.502 41.4407 122.963 40.5175 121.371L26.7006 92.9615L130.078 92.4764Z" stroke="#222222" stroke-width="5" stroke-miterlimit="10"/>
<path d="M139.154 60.5007L139.29 72.3816L130.26 92.6158L27.0874 93.0602L14.6342 73.0819L13.9643 61.0351L139.154 60.5007Z" stroke="#222222" stroke-width="5" stroke-miterlimit="10"/>
<path d="M113.785 36.2194L129.093 60.475L25.7642 61.01L37.2822 36.5465L113.785 36.2194Z" stroke="#222222" stroke-width="5" stroke-miterlimit="10"/>
<path d="M98.9175 18.4638L106.81 36.101L47.3833 36.1199L52.816 18.6426L98.9175 18.4638Z" stroke="#222222" stroke-width="5" stroke-miterlimit="10"/>
</svg>
