<svg width="26" height="20" viewBox="0 0 26 20" fill="none" xmlns="http://www.w3.org/2000/svg">
<path d="M23.475 5.7129L21.9375 8.0254C22.6789 9.50424 23.0419 11.1439 22.9939 12.7976C22.946 14.4512 22.4885 16.067 21.6625 17.5004H4.33747C3.26393 15.638 2.81909 13.4793 3.0689 11.3442C3.3187 9.20916 4.24986 7.21143 5.72432 5.64718C7.19878 4.08293 9.13805 3.03545 11.2546 2.66002C13.3712 2.28458 15.5525 2.60119 17.475 3.5629L19.7875 2.0254C17.4331 0.515666 14.6404 -0.160848 11.8561 0.104066C9.07179 0.36898 6.45678 1.56002 4.42934 3.48666C2.4019 5.4133 1.07917 7.96423 0.672743 10.7314C0.266313 13.4986 0.799659 16.3221 2.18747 18.7504C2.40561 19.1282 2.71883 19.4424 3.09601 19.6617C3.47319 19.881 3.90119 19.9978 4.33747 20.0004H21.65C22.0905 20.0021 22.5237 19.8875 22.9056 19.6679C23.2875 19.4484 23.6047 19.1319 23.825 18.7504C24.9767 16.7553 25.5547 14.4807 25.4951 12.1778C25.4356 9.87494 24.7408 7.6333 23.4875 5.7004L23.475 5.7129ZM11.2375 14.2629C11.4697 14.4953 11.7454 14.6797 12.0489 14.8055C12.3524 14.9314 12.6777 14.9961 13.0062 14.9961C13.3348 14.9961 13.6601 14.9314 13.9636 14.8055C14.2671 14.6797 14.5428 14.4953 14.775 14.2629L21.85 3.6504L11.2375 10.7254C11.005 10.9576 10.8206 11.2333 10.6948 11.5368C10.569 11.8403 10.5043 12.1656 10.5043 12.4941C10.5043 12.8227 10.569 13.148 10.6948 13.4515C10.8206 13.755 11.005 14.0307 11.2375 14.2629Z" fill="#7B5FC8"/>
</svg>
