<svg width="21" height="21" viewBox="0 0 21 21" fill="none" xmlns="http://www.w3.org/2000/svg">
<path d="M0.757812 20.0115C1.2592 19.862 1.721 19.6027 2.10967 19.2524C2.49834 18.9021 2.80412 18.4697 3.00481 17.9865C3.31365 18.7081 3.84213 19.3139 4.5151 19.7179C5.18807 20.1218 5.97127 20.3033 6.75331 20.2365C7.53529 20.3028 8.31828 20.121 8.99096 19.7168C9.66365 19.3126 10.1918 18.7066 10.5003 17.985C10.8091 18.7063 11.3373 19.312 12.01 19.7159C12.6826 20.1198 13.4655 20.3015 14.2473 20.235C15.0291 20.3015 15.812 20.1198 16.4846 19.7159C17.1573 19.312 17.6856 18.7063 17.9943 17.985C18.1954 18.4685 18.5017 18.901 18.8909 19.2513C19.2801 19.6016 19.7424 19.8608 20.2443 20.01M0.757812 14.016C1.25798 13.864 1.71857 13.6038 2.1069 13.2538C2.49523 12.9039 2.80179 12.4727 3.00481 11.991C3.63181 13.455 5.25481 14.241 6.75331 14.241C9.75031 14.241 11.9988 11.991 11.9988 9.744C12.0003 6.7455 10.5003 3.7485 6.75331 5.247C7.00231 3.747 8.55031 0.75 12.7488 0.75C16.9473 0.75 19.4943 3.7485 20.2428 5.247" stroke="#7B5FC8" stroke-width="2.14286" stroke-linecap="round" stroke-linejoin="round"/>
</svg>
