<svg width="28" height="22" viewBox="0 0 28 22" fill="none" xmlns="http://www.w3.org/2000/svg">
<path d="M20.5625 17.5625C20.5625 18.5571 20.1674 19.5109 19.4641 20.2141C18.7609 20.9174 17.8071 21.3125 16.8125 21.3125C15.207 21.3125 13.6543 20.266 13.1211 18.8258C13.04 18.5939 13.0531 18.3395 13.1576 18.1172C13.2622 17.8949 13.4498 17.7225 13.6802 17.6371C13.9105 17.5517 14.1651 17.5602 14.3893 17.6606C14.6135 17.7611 14.7893 17.9455 14.8789 18.1742C15.1414 18.8832 15.9922 19.4375 16.8125 19.4375C17.3098 19.4375 17.7867 19.24 18.1383 18.8883C18.49 18.5367 18.6875 18.0598 18.6875 17.5625C18.6875 17.0652 18.49 16.5883 18.1383 16.2367C17.7867 15.885 17.3098 15.6875 16.8125 15.6875H3.6875C3.43886 15.6875 3.2004 15.5887 3.02459 15.4129C2.84877 15.2371 2.75 14.9986 2.75 14.75C2.75 14.5014 2.84877 14.2629 3.02459 14.0871C3.2004 13.9113 3.43886 13.8125 3.6875 13.8125H16.8125C17.8071 13.8125 18.7609 14.2076 19.4641 14.9109C20.1674 15.6141 20.5625 16.5679 20.5625 17.5625ZM13.0625 8.1875C14.0571 8.1875 15.0109 7.79241 15.7141 7.08915C16.4174 6.38589 16.8125 5.43206 16.8125 4.4375C16.8125 3.44294 16.4174 2.48911 15.7141 1.78585C15.0109 1.08259 14.0571 0.6875 13.0625 0.6875C11.457 0.6875 9.9043 1.73398 9.37109 3.17422C9.28996 3.40609 9.30308 3.66055 9.40763 3.88285C9.51218 4.10514 9.69981 4.27752 9.93015 4.36291C10.1605 4.44829 10.4151 4.43984 10.6393 4.33939C10.8635 4.23895 11.0393 4.05452 11.1289 3.82578C11.3914 3.1168 12.2422 2.5625 13.0625 2.5625C13.5598 2.5625 14.0367 2.76004 14.3883 3.11167C14.74 3.46331 14.9375 3.94022 14.9375 4.4375C14.9375 4.93478 14.74 5.41169 14.3883 5.76332C14.0367 6.11496 13.5598 6.3125 13.0625 6.3125H1.8125C1.56386 6.3125 1.3254 6.41127 1.14959 6.58709C0.973772 6.7629 0.875 7.00136 0.875 7.25C0.875 7.49864 0.973772 7.7371 1.14959 7.91291C1.3254 8.08873 1.56386 8.1875 1.8125 8.1875H13.0625ZM23.375 4.4375C21.7695 4.4375 20.2168 5.48398 19.6836 6.92422C19.6025 7.15609 19.6156 7.41055 19.7201 7.63284C19.8247 7.85514 20.0123 8.02752 20.2427 8.11291C20.473 8.19829 20.7276 8.18984 20.9518 8.08939C21.176 7.98895 21.3518 7.80452 21.4414 7.57578C21.7039 6.8668 22.5547 6.3125 23.375 6.3125C23.8723 6.3125 24.3492 6.51004 24.7008 6.86168C25.0525 7.21331 25.25 7.69022 25.25 8.1875C25.25 8.68478 25.0525 9.16169 24.7008 9.51332C24.3492 9.86496 23.8723 10.0625 23.375 10.0625H2.75C2.50136 10.0625 2.2629 10.1613 2.08709 10.3371C1.91127 10.5129 1.8125 10.7514 1.8125 11C1.8125 11.2486 1.91127 11.4871 2.08709 11.6629C2.2629 11.8387 2.50136 11.9375 2.75 11.9375H23.375C24.3696 11.9375 25.3234 11.5424 26.0266 10.8392C26.7299 10.1359 27.125 9.18206 27.125 8.1875C27.125 7.19294 26.7299 6.23911 26.0266 5.53585C25.3234 4.83259 24.3696 4.4375 23.375 4.4375Z" fill="#7B5FC8"/>
</svg>
