<svg width="160" height="105" viewBox="0 0 160 105" fill="none" xmlns="http://www.w3.org/2000/svg">
  <g clip-path="url(#clip0_421_1229)">
    <rect x="1" y="1" width="158" height="103" rx="4" fill="#F0F0F0" />
    <circle cx="8" cy="7" r="3" fill="#00B5B5" />
    <rect x="16" y="4" width="33" height="6" rx="1" fill="#DEDEDE" />
    <rect x="42" y="20" width="117" height="92" rx="4" fill="#DEDEDE" />
    <rect x="54" y="4" width="19" height="6" rx="1" fill="#DEDEDE" />
    <rect x="5" y="20" width="19" height="4" rx="1" fill="#DEDEDE" />
    <rect x="5" y="26" width="24" height="4" rx="1" fill="#00B5B5" />
    <rect x="5" y="32" width="24" height="4" rx="1" fill="#DEDEDE" />
    <rect x="5" y="49" width="24" height="4" rx="1" fill="#DEDEDE" />
    <rect opacity="0.5" x="49" y="24" width="19" height="4" rx="1" fill="#AFAFAF" />
    <rect x="49" y="32" width="112" height="17" rx="2" fill="#F0F0F0" />
    <rect x="49" y="55" width="112" height="52" rx="2" fill="#F0F0F0" />
    <line y1="13.75" x2="158" y2="13.75" stroke="#DEDEDE" stroke-width="0.5" />
    <line x1="86.25" y1="32" x2="86.25" y2="49" stroke="#DEDEDE" stroke-width="0.5" />
    <line x1="127.25" y1="32" x2="127.25" y2="49" stroke="#DEDEDE" stroke-width="0.5" />
    <circle cx="53" cy="36" r="1" fill="#00B5B5" />
    <circle cx="90" cy="36" r="1" fill="#00B5B5" />
    <circle cx="131" cy="36" r="1" fill="#00B5B5" />
    <rect x="52" y="39" width="30" height="2" rx="1" fill="#DEDEDE" />
    <rect x="52" y="43" width="30" height="2" rx="1" fill="#DEDEDE" />
    <rect x="54" y="60" width="95" height="2" rx="1" fill="#DEDEDE" />
    <rect x="54" y="64" width="95" height="2" rx="1" fill="#DEDEDE" />
    <rect x="54" y="68" width="95" height="2" rx="1" fill="#DEDEDE" />
    <rect x="54" y="72" width="95" height="2" rx="1" fill="#DEDEDE" />
    <rect x="89" y="39" width="30" height="2" rx="1" fill="#DEDEDE" />
    <rect x="89" y="43" width="30" height="2" rx="1" fill="#DEDEDE" />
    <rect x="130" y="39" width="30" height="2" rx="1" fill="#DEDEDE" />
    <rect x="130" y="43" width="30" height="2" rx="1" fill="#DEDEDE" />
  </g>
  <rect x="0.5" y="0.5" width="159" height="104" rx="4.5" stroke="#DEDEDE" />
  <defs>
    <clipPath id="clip0_421_1229">
      <rect x="1" y="1" width="158" height="103" rx="4" fill="white" />
    </clipPath>
  </defs>
</svg>