<svg width="86" height="137" viewBox="0 0 86 137" fill="none" xmlns="http://www.w3.org/2000/svg">
<g clip-path="url(#clip0_405_532)">
<rect x="0.5" y="1" width="67" height="135" rx="3.5" fill="#121212"/>
<rect x="0.5" y="1" width="67" height="135" rx="3.5" stroke="#343333"/>
<rect x="2" y="3.5" width="64" height="111" rx="4" fill="#343333"/>
<rect x="7" y="8.5" width="54" height="30.3333" rx="2" fill="#121212"/>
<rect x="7" y="43.8334" width="54" height="30.3333" rx="2" fill="#121212"/>
<rect x="7" y="79.1666" width="54" height="30.3333" rx="2" fill="#121212"/>
<rect x="2" y="117.5" width="31" height="7" rx="1" fill="#343333"/>
<circle cx="5" cy="130.5" r="3" fill="#AFAFAF" fill-opacity="0.5"/>
<circle cx="16.6001" cy="130.5" r="3" fill="#AFAFAF" fill-opacity="0.5"/>
<circle cx="28.2002" cy="130.5" r="3" fill="#77ED00"/>
</g>
<g clip-path="url(#clip1_405_532)">
<rect x="18.5" y="1" width="67" height="135" rx="3.5" fill="#F0F0F0"/>
<rect x="18.5" y="1" width="67" height="135" rx="3.5" stroke="#DDDDDD"/>
<rect x="20" y="3.5" width="64" height="111" rx="4" fill="#DDDDDD"/>
<rect x="25" y="8.5" width="54" height="30.3333" rx="2" fill="#F0F0F0"/>
<rect x="25" y="43.8334" width="54" height="30.3333" rx="2" fill="#F0F0F0"/>
<rect x="25" y="79.1666" width="54" height="30.3333" rx="2" fill="#F0F0F0"/>
<rect x="53" y="117.5" width="31" height="7" rx="1" fill="#7B5FC8"/>
<circle cx="57.7998" cy="130.5" r="3" fill="#AFAFAF" fill-opacity="0.5"/>
<circle cx="69.3999" cy="130.5" r="3" fill="#AFAFAF" fill-opacity="0.5"/>
<circle cx="81" cy="130.5" r="3" fill="#AFAFAF" fill-opacity="0.5"/>
</g>
<defs>
<clipPath id="clip0_405_532">
<rect width="34" height="136" fill="white" transform="translate(0 0.5)"/>
</clipPath>
<clipPath id="clip1_405_532">
<rect width="34" height="136" fill="white" transform="translate(52 0.5)"/>
</clipPath>
</defs>
</svg>
