<svg width="86" height="137" viewBox="0 0 86 137" fill="none" xmlns="http://www.w3.org/2000/svg">
<rect x="0.5" y="1" width="85" height="135" rx="3.5" fill="#121212"/>
<rect x="0.5" y="1" width="85" height="135" rx="3.5" stroke="#343333"/>
<rect x="2" y="3.5" width="82" height="111" rx="4" fill="#343333"/>
<rect x="7" y="8.5" width="72" height="30.3333" rx="2" fill="#121212"/>
<rect x="7" y="43.8334" width="72" height="30.3333" rx="2" fill="#121212"/>
<rect x="7" y="79.1666" width="72" height="30.3333" rx="2" fill="#121212"/>
<rect x="2" y="117.5" width="40" height="7" rx="1" fill="#343333"/>
<rect x="44" y="117.5" width="40" height="7" rx="1" fill="#77ED00"/>
<circle cx="5" cy="130.5" r="3" fill="#AFAFAF" fill-opacity="0.5"/>
<circle cx="20.2002" cy="130.5" r="3" fill="#AFAFAF" fill-opacity="0.5"/>
<circle cx="35.3999" cy="130.5" r="3" fill="#77ED00"/>
<circle cx="50.6001" cy="130.5" r="3" fill="#AFAFAF" fill-opacity="0.5"/>
<circle cx="65.7998" cy="130.5" r="3" fill="#AFAFAF" fill-opacity="0.5"/>
<circle cx="81" cy="130.5" r="3" fill="#AFAFAF" fill-opacity="0.5"/>
</svg>
