<svg width="20" height="20" viewBox="0 0 20 20" fill="none" xmlns="http://www.w3.org/2000/svg">
  <path
    d="M6.66665 13.3333V9.16665M9.99998 13.3333V6.66665M13.3333 13.3333V11.6666M15 3.33331H4.99998C4.55795 3.33331 4.13403 3.50891 3.82147 3.82147C3.50891 4.13403 3.33331 4.55795 3.33331 4.99998V15C3.33331 15.442 3.50891 15.8659 3.82147 16.1785C4.13403 16.4911 4.55795 16.6666 4.99998 16.6666H15C15.442 16.6666 15.8659 16.4911 16.1785 16.1785C16.4911 15.8659 16.6666 15.442 16.6666 15V4.99998C16.6666 4.55795 16.4911 4.13403 16.1785 3.82147C15.8659 3.50891 15.442 3.33331 15 3.33331Z"
    stroke="#222222" stroke-width="2" stroke-linecap="round" stroke-linejoin="round" />
</svg>