<svg width="330" height="186" viewBox="0 0 330 186" fill="none" xmlns="http://www.w3.org/2000/svg">
<g clip-path="url(#clip0_1306_1102)">
<path d="M283 185.989H281.948C269.877 185.989 257.798 185.989 245.711 185.989C245.421 186.005 245.132 185.951 244.871 185.832C244.609 185.712 244.383 185.531 244.214 185.306C240.004 180.206 235.778 175.114 231.537 170.029C227.505 165.164 223.464 160.313 219.412 155.475L202.82 135.6C197.672 129.434 192.523 123.271 187.375 117.113C181.874 110.53 176.375 103.938 170.878 97.3399C166.173 91.7051 161.464 86.0759 156.751 80.4525C156.585 80.2476 156.442 80.0199 156.211 79.6898C156.591 79.6557 156.805 79.6101 157.084 79.6101C169.535 79.6101 181.987 79.6101 194.438 79.6101C209.883 79.6101 225.281 79.6727 240.703 79.6101C243.54 79.6181 246.297 78.7121 248.531 77.0378C250.766 75.3634 252.348 73.0179 253.024 70.3782C253.256 69.5193 253.374 68.6358 253.374 67.7486C253.398 57.9133 253.398 48.078 253.374 38.2427C253.341 36.122 252.599 34.0673 251.259 32.3795C249.918 30.6916 248.049 29.4592 245.925 28.8627C244.747 28.5431 243.531 28.3747 242.307 28.3618C205.238 28.3315 168.169 28.3315 131.1 28.3618C128.422 28.3574 125.747 28.5476 123.098 28.931C113.785 30.3075 104.998 33.9517 97.576 39.5147C90.1545 45.0777 84.3479 52.3731 80.7123 60.7022C79.3605 63.679 78.3506 66.7879 77.7005 69.974C77.148 72.8199 76.8747 75.7796 76.5124 78.6881C76.447 79.2572 76.2985 79.4109 75.7163 79.4109C66.3778 79.4109 57.0393 79.4109 47.7007 79.4109C47.4869 79.4109 47.273 79.4109 46.9997 79.4109C46.9997 78.7165 46.9582 78.0449 46.9997 77.379C47.1364 75.4267 47.2492 73.4688 47.4987 71.5279C47.7601 69.4789 48.0928 67.4355 48.5324 65.4093C48.972 63.383 49.4651 61.3795 49.9997 59.3817C51.0704 55.5232 52.4712 51.7558 54.1878 48.1178C62.2963 30.643 76.595 16.4795 94.5538 8.13341C98.4419 6.30878 102.477 4.7861 106.619 3.58003C108.995 2.90271 111.371 2.33923 113.748 1.87251C116.338 1.34887 118.952 0.859383 121.583 0.58618C124.673 0.237275 127.781 0.0472781 130.892 0.0170068C168.199 -0.0171435 205.505 -0.0171435 242.812 0.0170068C259.552 0.671556 271.784 8.05373 279.245 22.4993C280.867 25.6029 281.928 28.9479 282.382 32.3916C282.695 34.6889 282.87 37.0017 282.905 39.3184C282.964 48.835 283.006 58.3515 282.905 67.8681C282.817 75.736 280.34 83.4091 275.775 89.9499C271.21 96.4906 264.755 101.616 257.2 104.699C255.085 105.51 252.921 106.196 250.719 106.754C246.97 107.796 243.121 107.892 239.248 107.892C232.523 107.852 225.798 107.892 219.05 107.892C218.836 107.878 218.622 107.878 218.408 107.892C218.236 107.921 217.986 107.966 217.927 108.08C217.868 108.194 217.975 108.427 218.076 108.553C218.949 109.628 219.858 110.693 220.725 111.757L239.259 133.955C244.665 140.428 250.075 146.9 255.489 153.369C258.337 156.784 261.196 160.173 264.067 163.535L282.251 185.032C282.483 185.277 282.673 185.556 283 185.989Z" fill="#00B5B5"/>
<path d="M137.344 185.698C132.282 185.698 127.215 185.778 122.16 185.664C119.821 185.536 117.491 185.29 115.18 184.93C113.825 184.771 112.465 184.577 111.128 184.31C109.346 183.945 107.564 183.541 105.847 183.069C103.795 182.57 101.774 181.96 99.7936 181.242C96.3362 179.893 92.8669 178.527 89.564 176.87C81.6004 172.869 74.4209 167.575 68.3444 161.224C58.5377 151.103 51.7988 138.611 48.8535 125.093C47.7055 119.792 47.1204 114.393 47.1069 108.979C47.1069 108.342 47.3267 108.166 47.9683 108.171C57.2118 108.171 66.4553 108.171 75.6988 108.171C76.4413 108.171 76.6671 108.433 76.673 109.071C76.673 109.913 76.7205 110.778 76.7443 111.598C76.8791 114.687 77.3408 117.756 78.1225 120.756C79.5908 126.597 82.2122 132.114 85.8452 137.011C93.1508 146.939 104.075 153.883 116.463 156.471C119.849 157.179 123.304 157.539 126.77 157.547C135.467 157.587 144.164 157.547 152.861 157.547H153.716C154.09 157.547 154.31 157.701 154.31 158.082C154.31 158.241 154.31 158.401 154.31 158.56V184.742C154.31 185.778 154.31 185.784 153.199 185.784H137.344V185.698Z" fill="#00B5B5"/>
</g>
<defs>
<clipPath id="clip0_1306_1102">
<rect width="236" height="186" fill="white" transform="translate(47)"/>
</clipPath>
</defs>
</svg>
