<svg width="89" height="75" viewBox="0 0 89 75" fill="none" xmlns="http://www.w3.org/2000/svg">
<path d="M8.788 25.905C15.0665 20.4459 22.9506 17.1776 31.25 16.5935V24.75C31.25 25.4793 31.5397 26.1788 32.0555 26.6945C32.5712 27.2103 33.2707 27.5 34 27.5C34.7293 27.5 35.4288 27.2103 35.9445 26.6945C36.4603 26.1788 36.75 25.4793 36.75 24.75V16.599C45.5142 17.2243 53.8009 20.8287 60.234 26.8135C66.6671 32.7984 70.8595 40.8036 72.115 49.5H61.5C60.7707 49.5 60.0712 49.7897 59.5555 50.3055C59.0397 50.8212 58.75 51.5207 58.75 52.25C58.75 52.9793 59.0397 53.6788 59.5555 54.1945C60.0712 54.7103 60.7707 55 61.5 55H72.5C72.4937 60.3145 71.4132 65.5729 69.3235 70.4593C67.2337 75.3457 64.1779 79.7593 60.3395 83.435C59.834 83.9411 59.5456 84.6241 59.5354 85.3393C59.5253 86.0545 59.7942 86.7455 60.285 87.2657C60.7759 87.786 61.4502 88.0945 62.1647 88.1258C62.8793 88.1571 63.578 87.9088 64.1125 87.4335C68.4958 83.244 71.9859 78.2107 74.3726 72.6368C76.7593 67.0628 77.9932 61.0634 78 55C78 43.3305 73.3643 32.1389 65.1127 23.8873C56.8611 15.6357 45.6695 11 34 11C22.3305 11 11.1389 15.6357 2.8873 23.8873C-5.3643 32.1389 -10 43.3305 -10 55C-10 67.6225 -4.39 79.42 4.0965 87.4335C4.35941 87.6812 4.66853 87.8748 5.00623 88.003C5.34393 88.1313 5.70359 88.1918 6.06467 88.1811C6.42575 88.1704 6.78118 88.0886 7.11067 87.9405C7.44016 87.7924 7.73726 87.5809 7.985 87.318C8.23274 87.0551 8.42627 86.746 8.55454 86.4083C8.68281 86.0706 8.74331 85.7109 8.73258 85.3498C8.72186 84.9887 8.64012 84.6333 8.49203 84.3038C8.34394 83.9743 8.13241 83.6772 7.8695 83.4295C0.422501 76.395 -4.5 66.0165 -4.5 55H6.5C7.22935 55 7.92882 54.7103 8.44454 54.1945C8.96027 53.6788 9.25 52.9793 9.25 52.25C9.25 51.5207 8.96027 50.8212 8.44454 50.3055C7.92882 49.7897 7.22935 49.5 6.5 49.5H-4.115C-3.06642 42.2003 0.0654221 35.358 4.905 29.7935L12.803 37.697C13.3194 38.2134 14.0197 38.5035 14.75 38.5035C15.4803 38.5035 16.1806 38.2134 16.697 37.697C17.2134 37.1806 17.5035 36.4803 17.5035 35.75C17.5035 35.0197 17.2134 34.3194 16.697 33.803L8.788 25.905ZM52.9695 31.9385C53.4693 31.5416 54.0916 31.3308 54.7297 31.3424C55.3679 31.354 55.9821 31.5872 56.4672 32.002C56.9522 32.4169 57.2779 32.9875 57.3883 33.6161C57.4988 34.2447 57.3871 34.8922 57.0725 35.4475L56.4675 36.5255C54.2557 40.4311 52.03 44.3288 49.7905 48.2185C48 51.3311 46.1849 54.4295 44.3455 57.5135C43.6561 58.6737 42.9521 59.8251 42.2335 60.9675C41.6835 61.831 41.1445 62.6505 40.7485 63.1125C39.3277 64.7769 37.304 65.8087 35.1225 65.9809C32.941 66.1532 30.7804 65.4518 29.116 64.031C27.4516 62.6102 26.4198 60.5865 26.2476 58.405C26.0753 56.2235 26.7767 54.0629 28.1975 52.3985C28.5935 51.9365 29.314 51.271 30.084 50.5945C30.909 49.863 31.9705 48.9665 33.164 47.96C35.562 45.958 38.565 43.505 41.4965 41.14C44.9865 38.3168 48.4882 35.5081 52.0015 32.714L52.9695 31.9385Z" fill="#5080FC" fill-opacity="0.1"/>
</svg>
