<svg width="30" height="30" viewBox="0 0 30 30" fill="none" xmlns="http://www.w3.org/2000/svg">
<path d="M11.25 23.75V16.25C11.25 15.9185 11.1183 15.6005 10.8839 15.3661C10.6495 15.1317 10.3315 15 10 15H5C4.66848 15 4.35054 15.1317 4.11612 15.3661C3.8817 15.6005 3.75 15.9185 3.75 16.25V23.75C3.75 24.0815 3.8817 24.3995 4.11612 24.6339C4.35054 24.8683 4.66848 25 5 25M11.25 23.75C11.25 24.0815 11.1183 24.3995 10.8839 24.6339C10.6495 24.8683 10.3315 25 10 25H5M11.25 23.75C11.25 24.0815 11.3817 24.3995 11.6161 24.6339C11.8505 24.8683 12.1685 25 12.5 25H17.5C17.8315 25 18.1495 24.8683 18.3839 24.6339C18.6183 24.3995 18.75 24.0815 18.75 23.75M11.25 23.75V6.25C11.25 5.91848 11.3817 5.60054 11.6161 5.36612C11.8505 5.1317 12.1685 5 12.5 5H17.5C17.8315 5 18.1495 5.1317 18.3839 5.36612C18.6183 5.60054 18.75 5.91848 18.75 6.25V23.75M5 25H22.5M18.75 23.75C18.75 24.0815 18.8817 24.3995 19.1161 24.6339C19.3505 24.8683 19.6685 25 20 25H25C25.3315 25 25.6495 24.8683 25.8839 24.6339C26.1183 24.3995 26.25 24.0815 26.25 23.75V11.25C26.25 10.9185 26.1183 10.6005 25.8839 10.3661C25.6495 10.1317 25.3315 10 25 10H20C19.6685 10 19.3505 10.1317 19.1161 10.3661C18.8817 10.6005 18.75 10.9185 18.75 11.25V23.75Z" stroke="#AFAFAF" stroke-opacity="0.5" stroke-width="2" stroke-linecap="round" stroke-linejoin="round"/>
</svg>
