<svg width="24" height="24" viewBox="0 0 24 24" fill="none" xmlns="http://www.w3.org/2000/svg">
  <path fill-rule="evenodd" clip-rule="evenodd"
    d="M4 7C4 5.89543 4.95939 5 6.14286 5H16.8571C18.0406 5 19 5.89543 19 7V15C19 16.1046 18.0406 17 16.8571 17H14.4794L14.6103 17.4888L15.4719 18.2929C15.7784 18.5789 15.87 19.009 15.7042 19.3827C15.5384 19.7564 15.1477 20 14.7143 20H8.28575C7.85239 20 7.46171 19.7564 7.29587 19.3827C7.13004 19.009 7.2217 18.5789 7.52813 18.2929L8.38971 17.4888L8.52063 17H6.14286C4.95939 17 4 16.1046 4 15V7ZM10.1835 14C10.1678 13.9997 10.152 13.9997 10.1363 14H6.14286V7H16.8571V14H12.8637C12.848 13.9997 12.8323 13.9997 12.8165 14H10.1835Z"
    fill="#222222" />
</svg>