<svg width="20" height="20" viewBox="0 0 20 20" fill="none" xmlns="http://www.w3.org/2000/svg">
  <path
    d="M17.0106 6.9219L3.98403 2.0881L3.96551 2.08143C3.70286 1.99054 3.41993 1.97539 3.14908 2.03773C2.87822 2.10007 2.63037 2.23738 2.43384 2.43396C2.23731 2.63054 2.10004 2.87847 2.03772 3.1494C1.9754 3.42033 1.99054 3.70333 2.08141 3.96606L2.08808 3.98458L6.92053 17.0147C7.02298 17.3029 7.21209 17.5524 7.46192 17.7288C7.71174 17.9052 8.01003 17.9999 8.31584 18H8.34176C8.65415 17.9946 8.95682 17.8905 9.2065 17.7026C9.45617 17.5147 9.64007 17.2527 9.73188 16.954L11.4301 11.4327L16.9498 9.73402C17.2484 9.64317 17.5107 9.46028 17.6993 9.21146C17.8878 8.96265 17.9929 8.66062 17.9997 8.34848C18.0064 8.03635 17.9144 7.73006 17.7368 7.47334C17.5591 7.21662 17.305 7.02259 17.0106 6.91894V6.9219ZM10.7576 9.77699C10.5259 9.84793 10.3151 9.97466 10.1438 10.1461C9.97245 10.3174 9.84576 10.5283 9.77483 10.76L8.29362 15.5961L3.98329 3.98384L15.5923 8.29536L10.7576 9.77699Z"
    fill="#222222" />
</svg>