<svg width="94" height="109" viewBox="0 0 94 109" fill="none" xmlns="http://www.w3.org/2000/svg">
<path d="M1.55568 29.8467C1.55568 24.418 3.7122 19.2117 7.55084 15.3731C11.3895 11.5345 16.5958 9.37793 22.0244 9.37793C27.4531 9.37793 32.6594 11.5345 36.498 15.3731C40.3367 19.2117 42.4932 24.418 42.4932 29.8467V74.4686C46.4423 78.4991 49.1136 83.6059 50.172 89.1485C51.2305 94.6911 50.629 100.423 48.443 105.625C46.2571 110.827 42.5839 115.268 37.8841 118.391C33.1844 121.514 27.6672 123.18 22.0244 123.18C16.3817 123.18 10.8645 121.514 6.16471 118.391C1.46493 115.268 -2.20823 110.827 -4.3942 105.625C-6.58016 100.423 -7.18162 94.6911 -6.12316 89.1485C-5.0647 83.6059 -2.39344 78.4991 1.55568 74.4686V29.8467ZM22.0244 17.5654C18.7672 17.5654 15.6435 18.8593 13.3403 21.1625C11.0371 23.4657 9.74318 26.5895 9.74318 29.8467V78.0465L8.38405 79.2746C5.29387 82.0381 3.11562 85.6747 2.13757 89.7033C1.15953 93.7318 1.42779 97.9624 2.90685 101.835C4.38592 105.708 7.00607 109.04 10.4206 111.391C13.8351 113.742 17.8829 115.001 22.0285 115.001C26.1741 115.001 30.222 113.742 33.6365 111.391C37.051 109.04 39.6711 105.708 41.1502 101.835C42.6293 97.9624 42.8975 93.7318 41.9195 89.7033C40.9414 85.6747 38.7632 82.0381 35.673 79.2746L34.3057 78.0383V29.8467C34.3057 26.5895 33.0118 23.4657 30.7086 21.1625C28.4054 18.8593 25.2816 17.5654 22.0244 17.5654ZM26.1182 50.3154C26.1182 49.2297 25.6869 48.1884 24.9191 47.4207C24.1514 46.653 23.1102 46.2217 22.0244 46.2217C20.9387 46.2217 19.8974 46.653 19.1297 47.4207C18.362 48.1884 17.9307 49.2297 17.9307 50.3154V83.7614C15.1993 84.7271 12.8972 86.6273 11.4313 89.1261C9.96543 91.625 9.43014 94.5617 9.92005 97.417C10.41 100.272 11.8935 102.863 14.1085 104.73C16.3235 106.597 19.1273 107.621 22.0244 107.621C24.9215 107.621 27.7253 106.597 29.9403 104.73C32.1553 102.863 33.6389 100.272 34.1288 97.417C34.6187 94.5617 34.0834 91.625 32.6175 89.1261C31.1517 86.6273 28.8496 84.7271 26.1182 83.7614V50.3154Z" fill="#5080FC" fill-opacity="0.1"/>
</svg>
